<mxfile host="Electron" agent="Mozilla/5.0 (X11; Linux x86_64) AppleWebKit/537.36 (KHTML, like Gecko) draw.io/24.7.17 Chrome/128.0.6613.36 Electron/32.0.1 Safari/537.36" version="24.7.17">
  <diagram name="Page-1" id="L0TMY35DObfDmX4PfZSR">
    <mxGraphModel dx="1404" dy="878" grid="1" gridSize="10" guides="1" tooltips="1" connect="1" arrows="1" fold="1" page="1" pageScale="1" pageWidth="827" pageHeight="1169" math="0" shadow="0">
      <root>
        <mxCell id="0" />
        <mxCell id="1" parent="0" />
        <mxCell id="TXDJFziTyYmahO-NdrF_-3" value="Base Map" style="shape=table;startSize=30;container=1;collapsible=1;childLayout=tableLayout;fixedRows=1;rowLines=0;fontStyle=1;align=center;resizeLast=1;html=1;" parent="1" vertex="1">
          <mxGeometry x="290" y="60" width="180" height="160" as="geometry" />
        </mxCell>
        <mxCell id="TXDJFziTyYmahO-NdrF_-4" value="" style="shape=tableRow;horizontal=0;startSize=0;swimlaneHead=0;swimlaneBody=0;fillColor=none;collapsible=0;dropTarget=0;points=[[0,0.5],[1,0.5]];portConstraint=eastwest;top=0;left=0;right=0;bottom=1;" parent="TXDJFziTyYmahO-NdrF_-3" vertex="1">
          <mxGeometry y="30" width="180" height="30" as="geometry" />
        </mxCell>
        <mxCell id="TXDJFziTyYmahO-NdrF_-5" value="PK" style="shape=partialRectangle;connectable=0;fillColor=none;top=0;left=0;bottom=0;right=0;fontStyle=1;overflow=hidden;whiteSpace=wrap;html=1;" parent="TXDJFziTyYmahO-NdrF_-4" vertex="1">
          <mxGeometry width="30" height="30" as="geometry">
            <mxRectangle width="30" height="30" as="alternateBounds" />
          </mxGeometry>
        </mxCell>
        <mxCell id="TXDJFziTyYmahO-NdrF_-6" value="id" style="shape=partialRectangle;connectable=0;fillColor=none;top=0;left=0;bottom=0;right=0;align=left;spacingLeft=6;fontStyle=5;overflow=hidden;whiteSpace=wrap;html=1;" parent="TXDJFziTyYmahO-NdrF_-4" vertex="1">
          <mxGeometry x="30" width="150" height="30" as="geometry">
            <mxRectangle width="150" height="30" as="alternateBounds" />
          </mxGeometry>
        </mxCell>
        <mxCell id="TXDJFziTyYmahO-NdrF_-7" value="" style="shape=tableRow;horizontal=0;startSize=0;swimlaneHead=0;swimlaneBody=0;fillColor=none;collapsible=0;dropTarget=0;points=[[0,0.5],[1,0.5]];portConstraint=eastwest;top=0;left=0;right=0;bottom=0;" parent="TXDJFziTyYmahO-NdrF_-3" vertex="1">
          <mxGeometry y="60" width="180" height="100" as="geometry" />
        </mxCell>
        <mxCell id="TXDJFziTyYmahO-NdrF_-8" value="" style="shape=partialRectangle;connectable=0;fillColor=none;top=0;left=0;bottom=0;right=0;editable=1;overflow=hidden;whiteSpace=wrap;html=1;" parent="TXDJFziTyYmahO-NdrF_-7" vertex="1">
          <mxGeometry width="30" height="100" as="geometry">
            <mxRectangle width="30" height="100" as="alternateBounds" />
          </mxGeometry>
        </mxCell>
        <mxCell id="TXDJFziTyYmahO-NdrF_-9" value="global_gps_x&lt;div&gt;global_gps_y&lt;br&gt;&lt;/div&gt;&lt;div&gt;waypoints_collection&lt;/div&gt;&lt;div&gt;buildings_collection&lt;/div&gt;&lt;div&gt;waypoints_updated_time&lt;/div&gt;&lt;div&gt;buildings_updated_time&lt;/div&gt;" style="shape=partialRectangle;connectable=0;fillColor=none;top=0;left=0;bottom=0;right=0;align=left;spacingLeft=6;overflow=hidden;whiteSpace=wrap;html=1;" parent="TXDJFziTyYmahO-NdrF_-7" vertex="1">
          <mxGeometry x="30" width="150" height="100" as="geometry">
            <mxRectangle width="150" height="100" as="alternateBounds" />
          </mxGeometry>
        </mxCell>
        <mxCell id="TXDJFziTyYmahO-NdrF_-16" value="Waypoint" style="shape=table;startSize=30;container=1;collapsible=1;childLayout=tableLayout;fixedRows=1;rowLines=0;fontStyle=1;align=center;resizeLast=1;html=1;" parent="1" vertex="1">
          <mxGeometry x="130" y="305" width="190" height="120" as="geometry" />
        </mxCell>
        <mxCell id="TXDJFziTyYmahO-NdrF_-17" value="" style="shape=tableRow;horizontal=0;startSize=0;swimlaneHead=0;swimlaneBody=0;fillColor=none;collapsible=0;dropTarget=0;points=[[0,0.5],[1,0.5]];portConstraint=eastwest;top=0;left=0;right=0;bottom=1;" parent="TXDJFziTyYmahO-NdrF_-16" vertex="1">
          <mxGeometry y="30" width="190" height="30" as="geometry" />
        </mxCell>
        <mxCell id="TXDJFziTyYmahO-NdrF_-18" value="PK" style="shape=partialRectangle;connectable=0;fillColor=none;top=0;left=0;bottom=0;right=0;fontStyle=1;overflow=hidden;whiteSpace=wrap;html=1;" parent="TXDJFziTyYmahO-NdrF_-17" vertex="1">
          <mxGeometry width="30" height="30" as="geometry">
            <mxRectangle width="30" height="30" as="alternateBounds" />
          </mxGeometry>
        </mxCell>
        <mxCell id="TXDJFziTyYmahO-NdrF_-19" value="id" style="shape=partialRectangle;connectable=0;fillColor=none;top=0;left=0;bottom=0;right=0;align=left;spacingLeft=6;fontStyle=5;overflow=hidden;whiteSpace=wrap;html=1;" parent="TXDJFziTyYmahO-NdrF_-17" vertex="1">
          <mxGeometry x="30" width="160" height="30" as="geometry">
            <mxRectangle width="160" height="30" as="alternateBounds" />
          </mxGeometry>
        </mxCell>
        <mxCell id="TXDJFziTyYmahO-NdrF_-20" value="" style="shape=tableRow;horizontal=0;startSize=0;swimlaneHead=0;swimlaneBody=0;fillColor=none;collapsible=0;dropTarget=0;points=[[0,0.5],[1,0.5]];portConstraint=eastwest;top=0;left=0;right=0;bottom=0;" parent="TXDJFziTyYmahO-NdrF_-16" vertex="1">
          <mxGeometry y="60" width="190" height="60" as="geometry" />
        </mxCell>
        <mxCell id="TXDJFziTyYmahO-NdrF_-21" value="" style="shape=partialRectangle;connectable=0;fillColor=none;top=0;left=0;bottom=0;right=0;editable=1;overflow=hidden;whiteSpace=wrap;html=1;" parent="TXDJFziTyYmahO-NdrF_-20" vertex="1">
          <mxGeometry width="30" height="60" as="geometry">
            <mxRectangle width="30" height="60" as="alternateBounds" />
          </mxGeometry>
        </mxCell>
        <mxCell id="TXDJFziTyYmahO-NdrF_-22" value="local_location_x&lt;div&gt;local_location_y&lt;br&gt;&lt;/div&gt;&lt;div&gt;waypoint_connections_ids&lt;/div&gt;" style="shape=partialRectangle;connectable=0;fillColor=none;top=0;left=0;bottom=0;right=0;align=left;spacingLeft=6;overflow=hidden;whiteSpace=wrap;html=1;" parent="TXDJFziTyYmahO-NdrF_-20" vertex="1">
          <mxGeometry x="30" width="160" height="60" as="geometry">
            <mxRectangle width="160" height="60" as="alternateBounds" />
          </mxGeometry>
        </mxCell>
        <mxCell id="TXDJFziTyYmahO-NdrF_-23" value="Room" style="shape=table;startSize=30;container=1;collapsible=1;childLayout=tableLayout;fixedRows=1;rowLines=0;fontStyle=1;align=center;resizeLast=1;html=1;" parent="1" vertex="1">
          <mxGeometry x="470" y="540" width="180" height="180" as="geometry" />
        </mxCell>
        <mxCell id="TXDJFziTyYmahO-NdrF_-24" value="" style="shape=tableRow;horizontal=0;startSize=0;swimlaneHead=0;swimlaneBody=0;fillColor=none;collapsible=0;dropTarget=0;points=[[0,0.5],[1,0.5]];portConstraint=eastwest;top=0;left=0;right=0;bottom=1;" parent="TXDJFziTyYmahO-NdrF_-23" vertex="1">
          <mxGeometry y="30" width="180" height="30" as="geometry" />
        </mxCell>
        <mxCell id="TXDJFziTyYmahO-NdrF_-25" value="PK" style="shape=partialRectangle;connectable=0;fillColor=none;top=0;left=0;bottom=0;right=0;fontStyle=1;overflow=hidden;whiteSpace=wrap;html=1;" parent="TXDJFziTyYmahO-NdrF_-24" vertex="1">
          <mxGeometry width="30" height="30" as="geometry">
            <mxRectangle width="30" height="30" as="alternateBounds" />
          </mxGeometry>
        </mxCell>
        <mxCell id="TXDJFziTyYmahO-NdrF_-26" value="id" style="shape=partialRectangle;connectable=0;fillColor=none;top=0;left=0;bottom=0;right=0;align=left;spacingLeft=6;fontStyle=5;overflow=hidden;whiteSpace=wrap;html=1;" parent="TXDJFziTyYmahO-NdrF_-24" vertex="1">
          <mxGeometry x="30" width="150" height="30" as="geometry">
            <mxRectangle width="150" height="30" as="alternateBounds" />
          </mxGeometry>
        </mxCell>
        <mxCell id="TXDJFziTyYmahO-NdrF_-27" value="" style="shape=tableRow;horizontal=0;startSize=0;swimlaneHead=0;swimlaneBody=0;fillColor=none;collapsible=0;dropTarget=0;points=[[0,0.5],[1,0.5]];portConstraint=eastwest;top=0;left=0;right=0;bottom=0;" parent="TXDJFziTyYmahO-NdrF_-23" vertex="1">
          <mxGeometry y="60" width="180" height="120" as="geometry" />
        </mxCell>
        <mxCell id="TXDJFziTyYmahO-NdrF_-28" value="" style="shape=partialRectangle;connectable=0;fillColor=none;top=0;left=0;bottom=0;right=0;editable=1;overflow=hidden;whiteSpace=wrap;html=1;" parent="TXDJFziTyYmahO-NdrF_-27" vertex="1">
          <mxGeometry width="30" height="120" as="geometry">
            <mxRectangle width="30" height="120" as="alternateBounds" />
          </mxGeometry>
        </mxCell>
        <mxCell id="TXDJFziTyYmahO-NdrF_-29" value="&lt;div&gt;name&lt;/div&gt;&lt;div&gt;description&lt;/div&gt;&lt;div&gt;lecturers&lt;/div&gt;local_location_x&lt;div&gt;local_location_y&lt;br&gt;&lt;/div&gt;&lt;div&gt;waypoints_collection&lt;/div&gt;&lt;div&gt;waypoints_updated_time&lt;/div&gt;" style="shape=partialRectangle;connectable=0;fillColor=none;top=0;left=0;bottom=0;right=0;align=left;spacingLeft=6;overflow=hidden;whiteSpace=wrap;html=1;" parent="TXDJFziTyYmahO-NdrF_-27" vertex="1">
          <mxGeometry x="30" width="150" height="120" as="geometry">
            <mxRectangle width="150" height="120" as="alternateBounds" />
          </mxGeometry>
        </mxCell>
        <mxCell id="TXDJFziTyYmahO-NdrF_-30" value="Building" style="shape=table;startSize=30;container=1;collapsible=1;childLayout=tableLayout;fixedRows=1;rowLines=0;fontStyle=1;align=center;resizeLast=1;html=1;" parent="1" vertex="1">
          <mxGeometry x="470" y="260" width="180" height="210" as="geometry" />
        </mxCell>
        <mxCell id="TXDJFziTyYmahO-NdrF_-31" value="" style="shape=tableRow;horizontal=0;startSize=0;swimlaneHead=0;swimlaneBody=0;fillColor=none;collapsible=0;dropTarget=0;points=[[0,0.5],[1,0.5]];portConstraint=eastwest;top=0;left=0;right=0;bottom=1;" parent="TXDJFziTyYmahO-NdrF_-30" vertex="1">
          <mxGeometry y="30" width="180" height="30" as="geometry" />
        </mxCell>
        <mxCell id="TXDJFziTyYmahO-NdrF_-32" value="PK" style="shape=partialRectangle;connectable=0;fillColor=none;top=0;left=0;bottom=0;right=0;fontStyle=1;overflow=hidden;whiteSpace=wrap;html=1;" parent="TXDJFziTyYmahO-NdrF_-31" vertex="1">
          <mxGeometry width="30" height="30" as="geometry">
            <mxRectangle width="30" height="30" as="alternateBounds" />
          </mxGeometry>
        </mxCell>
        <mxCell id="TXDJFziTyYmahO-NdrF_-33" value="id" style="shape=partialRectangle;connectable=0;fillColor=none;top=0;left=0;bottom=0;right=0;align=left;spacingLeft=6;fontStyle=5;overflow=hidden;whiteSpace=wrap;html=1;" parent="TXDJFziTyYmahO-NdrF_-31" vertex="1">
          <mxGeometry x="30" width="150" height="30" as="geometry">
            <mxRectangle width="150" height="30" as="alternateBounds" />
          </mxGeometry>
        </mxCell>
        <mxCell id="TXDJFziTyYmahO-NdrF_-34" value="" style="shape=tableRow;horizontal=0;startSize=0;swimlaneHead=0;swimlaneBody=0;fillColor=none;collapsible=0;dropTarget=0;points=[[0,0.5],[1,0.5]];portConstraint=eastwest;top=0;left=0;right=0;bottom=0;" parent="TXDJFziTyYmahO-NdrF_-30" vertex="1">
          <mxGeometry y="60" width="180" height="150" as="geometry" />
        </mxCell>
        <mxCell id="TXDJFziTyYmahO-NdrF_-35" value="" style="shape=partialRectangle;connectable=0;fillColor=none;top=0;left=0;bottom=0;right=0;editable=1;overflow=hidden;whiteSpace=wrap;html=1;" parent="TXDJFziTyYmahO-NdrF_-34" vertex="1">
          <mxGeometry width="30" height="150" as="geometry">
            <mxRectangle width="30" height="150" as="alternateBounds" />
          </mxGeometry>
        </mxCell>
        <mxCell id="TXDJFziTyYmahO-NdrF_-36" value="&lt;div&gt;name&lt;/div&gt;&lt;div&gt;description&lt;/div&gt;&lt;div&gt;building_letter&lt;/div&gt;local_location_x&lt;div&gt;local_location_y&lt;br&gt;&lt;/div&gt;&lt;div&gt;waypoints_collection&lt;/div&gt;&lt;div&gt;rooms_collection&lt;/div&gt;&lt;div&gt;waypoints_updated_time&lt;/div&gt;&lt;div&gt;rooms_updated_time&lt;/div&gt;" style="shape=partialRectangle;connectable=0;fillColor=none;top=0;left=0;bottom=0;right=0;align=left;spacingLeft=6;overflow=hidden;whiteSpace=wrap;html=1;" parent="TXDJFziTyYmahO-NdrF_-34" vertex="1">
          <mxGeometry x="30" width="150" height="150" as="geometry">
            <mxRectangle width="150" height="150" as="alternateBounds" />
          </mxGeometry>
        </mxCell>
        <mxCell id="TXDJFziTyYmahO-NdrF_-40" value="" style="fontSize=12;html=1;endArrow=ERzeroToMany;rounded=0;edgeStyle=orthogonalEdgeStyle;strokeWidth=1;targetPerimeterSpacing=0;endSize=10;startArrow=ERmandOne;startFill=0;startSize=10;endFill=0;" parent="1" source="TXDJFziTyYmahO-NdrF_-7" target="TXDJFziTyYmahO-NdrF_-30" edge="1">
          <mxGeometry width="100" height="100" relative="1" as="geometry">
            <mxPoint x="530" y="220" as="sourcePoint" />
            <mxPoint x="470" y="360" as="targetPoint" />
          </mxGeometry>
        </mxCell>
        <mxCell id="TXDJFziTyYmahO-NdrF_-42" value="" style="fontSize=12;html=1;endArrow=ERzeroToMany;rounded=0;edgeStyle=orthogonalEdgeStyle;strokeWidth=1;targetPerimeterSpacing=0;endSize=10;endFill=0;startArrow=ERmandOne;startFill=0;startSize=10;" parent="1" source="TXDJFziTyYmahO-NdrF_-7" target="TXDJFziTyYmahO-NdrF_-16" edge="1">
          <mxGeometry width="100" height="100" relative="1" as="geometry">
            <mxPoint x="130" y="350" as="sourcePoint" />
            <mxPoint x="260" y="480" as="targetPoint" />
          </mxGeometry>
        </mxCell>
        <mxCell id="TXDJFziTyYmahO-NdrF_-43" value="" style="fontSize=12;html=1;endArrow=ERzeroToMany;rounded=0;edgeStyle=orthogonalEdgeStyle;strokeWidth=1;targetPerimeterSpacing=0;endSize=10;endFill=0;startArrow=ERmandOne;startFill=0;startSize=10;" parent="1" source="TXDJFziTyYmahO-NdrF_-30" target="TXDJFziTyYmahO-NdrF_-16" edge="1">
          <mxGeometry width="100" height="100" relative="1" as="geometry">
            <mxPoint x="455" y="460" as="sourcePoint" />
            <mxPoint x="340" y="680" as="targetPoint" />
          </mxGeometry>
        </mxCell>
        <mxCell id="TXDJFziTyYmahO-NdrF_-44" value="" style="fontSize=12;html=1;endArrow=ERzeroToMany;rounded=0;edgeStyle=orthogonalEdgeStyle;strokeWidth=1;targetPerimeterSpacing=0;endSize=10;endFill=0;startArrow=ERmandOne;startFill=0;startSize=10;" parent="1" source="TXDJFziTyYmahO-NdrF_-30" target="TXDJFziTyYmahO-NdrF_-23" edge="1">
          <mxGeometry width="100" height="100" relative="1" as="geometry">
            <mxPoint x="530" y="620" as="sourcePoint" />
            <mxPoint x="290" y="665" as="targetPoint" />
          </mxGeometry>
        </mxCell>
        <mxCell id="TXDJFziTyYmahO-NdrF_-45" value="" style="fontSize=12;html=1;endArrow=ERzeroToMany;rounded=0;edgeStyle=orthogonalEdgeStyle;strokeWidth=1;targetPerimeterSpacing=0;endSize=10;endFill=0;startArrow=ERmandOne;startFill=0;startSize=10;" parent="1" source="TXDJFziTyYmahO-NdrF_-23" target="TXDJFziTyYmahO-NdrF_-16" edge="1">
          <mxGeometry width="100" height="100" relative="1" as="geometry">
            <mxPoint x="360" y="540" as="sourcePoint" />
            <mxPoint x="440" y="630" as="targetPoint" />
          </mxGeometry>
        </mxCell>
      </root>
    </mxGraphModel>
  </diagram>
</mxfile>
